<svg width="20" height="22" viewBox="0 0 20 22" fill="none" xmlns="http://www.w3.org/2000/svg">
<path d="M8.07019 0.500001L-1.90735e-06 0.500002L-1.16655e-06 8.9737C-8.65202e-07 12.4208 1.34147 15.5529 3.50269 17.8222C5.66392 20.0915 8.64688 21.5 11.9298 21.5L20 21.5L20 13.0263C20 9.57923 18.6585 6.44712 16.4973 4.17783C14.3361 1.90854 11.3531 0.500001 8.07019 0.500001ZM4.31033 5.02585L8.07019 5.02585C10.1633 5.02585 12.0677 5.9266 13.4497 7.37774C14.8317 8.82889 15.6896 10.8285 15.6896 13.0262L15.6896 16.9741L11.9297 16.9741C9.83665 16.9741 7.93227 16.0733 6.55023 14.6222C5.16819 13.171 4.31033 11.1714 4.31033 8.9737L4.31033 5.02585Z" fill="#1A7440"/>
</svg>
